<svg id="mermaid-1683705681296" width="2116.296875" xmlns="http://www.w3.org/2000/svg" height="630.3125" viewBox="-10 -10 1417.53125 610.3125"><style>#mermaid-1683705681296 .label{font-family:'trebuchet ms', verdana, arial;font-family:var(--mermaid-font-family);color:#333}#mermaid-1683705681296 .label text{fill:#333}#mermaid-1683705681296 .node rect,#mermaid-1683705681296 .node circle,#mermaid-1683705681296 .node ellipse,#mermaid-1683705681296 .node polygon,#mermaid-1683705681296 .node path{fill:#ECECFF;stroke:#9370db;stroke-width:1px}#mermaid-1683705681296 .node .label{text-align:center}#mermaid-1683705681296 .node.clickable{cursor:pointer}#mermaid-1683705681296 .arrowheadPath{fill:#333}#mermaid-1683705681296 .edgePath .path{stroke:#333;stroke-width:1.5px}#mermaid-1683705681296 .edgeLabel{background-color:#e8e8e8;text-align:center}#mermaid-1683705681296 .cluster rect{fill:#ffffde;stroke:#aa3;stroke-width:1px}#mermaid-1683705681296 .cluster text{fill:#333}#mermaid-1683705681296 div.mermaidTooltip{position:absolute;text-align:center;max-width:200px;padding:2px;font-family:'trebuchet ms', verdana, arial;font-family:var(--mermaid-font-family);font-size:12px;background:#ffffde;border:1px solid #aa3;border-radius:2px;pointer-events:none;z-index:100}#mermaid-1683705681296 .actor{stroke:#ccf;fill:#ECECFF}#mermaid-1683705681296 text.actor{fill:#000;stroke:none}#mermaid-1683705681296 .actor-line{stroke:grey}#mermaid-1683705681296 .messageLine0{stroke-width:1.5;stroke-dasharray:'2 2';stroke:#333}#mermaid-1683705681296 .messageLine1{stroke-width:1.5;stroke-dasharray:'2 2';stroke:#333}#mermaid-1683705681296 #arrowhead{fill:#333}#mermaid-1683705681296 .sequenceNumber{fill:#fff}#mermaid-1683705681296 #sequencenumber{fill:#333}#mermaid-1683705681296 #crosshead path{fill:#333 !important;stroke:#333 !important}#mermaid-1683705681296 .messageText{fill:#333;stroke:none}#mermaid-1683705681296 .labelBox{stroke:#ccf;fill:#ECECFF}#mermaid-1683705681296 .labelText{fill:#000;stroke:none}#mermaid-1683705681296 .loopText{fill:#000;stroke:none}#mermaid-1683705681296 .loopLine{stroke-width:2;stroke-dasharray:'2 2';stroke:#ccf}#mermaid-1683705681296 .note{stroke:#aa3;fill:#fff5ad}#mermaid-1683705681296 .noteText{fill:black;stroke:none;font-family:'trebuchet ms', verdana, arial;font-family:var(--mermaid-font-family);font-size:14px}#mermaid-1683705681296 .activation0{fill:#f4f4f4;stroke:#666}#mermaid-1683705681296 .activation1{fill:#f4f4f4;stroke:#666}#mermaid-1683705681296 .activation2{fill:#f4f4f4;stroke:#666}#mermaid-1683705681296 .mermaid-main-font{font-family:"trebuchet ms", verdana, arial;font-family:var(--mermaid-font-family)}#mermaid-1683705681296 .section{stroke:none;opacity:0.2}#mermaid-1683705681296 .section0{fill:rgba(102,102,255,0.49)}#mermaid-1683705681296 .section2{fill:#fff400}#mermaid-1683705681296 .section1,#mermaid-1683705681296 .section3{fill:#fff;opacity:0.2}#mermaid-1683705681296 .sectionTitle0{fill:#333}#mermaid-1683705681296 .sectionTitle1{fill:#333}#mermaid-1683705681296 .sectionTitle2{fill:#333}#mermaid-1683705681296 .sectionTitle3{fill:#333}#mermaid-1683705681296 .sectionTitle{text-anchor:start;font-size:11px;text-height:14px;font-family:'trebuchet ms', verdana, arial;font-family:var(--mermaid-font-family)}#mermaid-1683705681296 .grid .tick{stroke:#d3d3d3;opacity:0.8;shape-rendering:crispEdges}#mermaid-1683705681296 .grid .tick text{font-family:'trebuchet ms', verdana, arial;font-family:var(--mermaid-font-family)}#mermaid-1683705681296 .grid path{stroke-width:0}#mermaid-1683705681296 .today{fill:none;stroke:red;stroke-width:2px}#mermaid-1683705681296 .task{stroke-width:2}#mermaid-1683705681296 .taskText{text-anchor:middle;font-family:'trebuchet ms', verdana, arial;font-family:var(--mermaid-font-family)}#mermaid-1683705681296 .taskText:not([font-size]){font-size:11px}#mermaid-1683705681296 .taskTextOutsideRight{fill:#000;text-anchor:start;font-size:11px;font-family:'trebuchet ms', verdana, arial;font-family:var(--mermaid-font-family)}#mermaid-1683705681296 .taskTextOutsideLeft{fill:#000;text-anchor:end;font-size:11px}#mermaid-1683705681296 .task.clickable{cursor:pointer}#mermaid-1683705681296 .taskText.clickable{cursor:pointer;fill:#003163 !important;font-weight:bold}#mermaid-1683705681296 .taskTextOutsideLeft.clickable{cursor:pointer;fill:#003163 !important;font-weight:bold}#mermaid-1683705681296 .taskTextOutsideRight.clickable{cursor:pointer;fill:#003163 !important;font-weight:bold}#mermaid-1683705681296 .taskText0,#mermaid-1683705681296 .taskText1,#mermaid-1683705681296 .taskText2,#mermaid-1683705681296 .taskText3{fill:#fff}#mermaid-1683705681296 .task0,#mermaid-1683705681296 .task1,#mermaid-1683705681296 .task2,#mermaid-1683705681296 .task3{fill:#8a90dd;stroke:#534fbc}#mermaid-1683705681296 .taskTextOutside0,#mermaid-1683705681296 .taskTextOutside2{fill:#000}#mermaid-1683705681296 .taskTextOutside1,#mermaid-1683705681296 .taskTextOutside3{fill:#000}#mermaid-1683705681296 .active0,#mermaid-1683705681296 .active1,#mermaid-1683705681296 .active2,#mermaid-1683705681296 .active3{fill:#bfc7ff;stroke:#534fbc}#mermaid-1683705681296 .activeText0,#mermaid-1683705681296 .activeText1,#mermaid-1683705681296 .activeText2,#mermaid-1683705681296 .activeText3{fill:#000 !important}#mermaid-1683705681296 .done0,#mermaid-1683705681296 .done1,#mermaid-1683705681296 .done2,#mermaid-1683705681296 .done3{stroke:grey;fill:#d3d3d3;stroke-width:2}#mermaid-1683705681296 .doneText0,#mermaid-1683705681296 .doneText1,#mermaid-1683705681296 .doneText2,#mermaid-1683705681296 .doneText3{fill:#000 !important}#mermaid-1683705681296 .crit0,#mermaid-1683705681296 .crit1,#mermaid-1683705681296 .crit2,#mermaid-1683705681296 .crit3{stroke:#f88;fill:red;stroke-width:2}#mermaid-1683705681296 .activeCrit0,#mermaid-1683705681296 .activeCrit1,#mermaid-1683705681296 .activeCrit2,#mermaid-1683705681296 .activeCrit3{stroke:#f88;fill:#bfc7ff;stroke-width:2}#mermaid-1683705681296 .doneCrit0,#mermaid-1683705681296 .doneCrit1,#mermaid-1683705681296 .doneCrit2,#mermaid-1683705681296 .doneCrit3{stroke:#f88;fill:#d3d3d3;stroke-width:2;cursor:pointer;shape-rendering:crispEdges}#mermaid-1683705681296 .milestone{transform:rotate(45deg) scale(0.8, 0.8)}#mermaid-1683705681296 .milestoneText{font-style:italic}#mermaid-1683705681296 .doneCritText0,#mermaid-1683705681296 .doneCritText1,#mermaid-1683705681296 .doneCritText2,#mermaid-1683705681296 .doneCritText3{fill:#000 !important}#mermaid-1683705681296 .activeCritText0,#mermaid-1683705681296 .activeCritText1,#mermaid-1683705681296 .activeCritText2,#mermaid-1683705681296 .activeCritText3{fill:#000 !important}#mermaid-1683705681296 .titleText{text-anchor:middle;font-size:18px;fill:#000;font-family:'trebuchet ms', verdana, arial;font-family:var(--mermaid-font-family)}#mermaid-1683705681296 g.classGroup text{fill:#9370db;stroke:none;font-family:'trebuchet ms', verdana, arial;font-family:var(--mermaid-font-family);font-size:10px}#mermaid-1683705681296 g.classGroup text .title{font-weight:bolder}#mermaid-1683705681296 g.clickable{cursor:pointer}#mermaid-1683705681296 g.classGroup rect{fill:#ECECFF;stroke:#9370db}#mermaid-1683705681296 g.classGroup line{stroke:#9370db;stroke-width:1}#mermaid-1683705681296 .classLabel .box{stroke:none;stroke-width:0;fill:#ECECFF;opacity:0.5}#mermaid-1683705681296 .classLabel .label{fill:#9370db;font-size:10px}#mermaid-1683705681296 .relation{stroke:#9370db;stroke-width:1;fill:none}#mermaid-1683705681296 .dashed-line{stroke-dasharray:3}#mermaid-1683705681296 #compositionStart{fill:#9370db;stroke:#9370db;stroke-width:1}#mermaid-1683705681296 #compositionEnd{fill:#9370db;stroke:#9370db;stroke-width:1}#mermaid-1683705681296 #aggregationStart{fill:#ECECFF;stroke:#9370db;stroke-width:1}#mermaid-1683705681296 #aggregationEnd{fill:#ECECFF;stroke:#9370db;stroke-width:1}#mermaid-1683705681296 #dependencyStart{fill:#9370db;stroke:#9370db;stroke-width:1}#mermaid-1683705681296 #dependencyEnd{fill:#9370db;stroke:#9370db;stroke-width:1}#mermaid-1683705681296 #extensionStart{fill:#9370db;stroke:#9370db;stroke-width:1}#mermaid-1683705681296 #extensionEnd{fill:#9370db;stroke:#9370db;stroke-width:1}#mermaid-1683705681296 .commit-id,#mermaid-1683705681296 .commit-msg,#mermaid-1683705681296 .branch-label{fill:lightgrey;color:lightgrey;font-family:'trebuchet ms', verdana, arial;font-family:var(--mermaid-font-family)}#mermaid-1683705681296 .pieTitleText{text-anchor:middle;font-size:25px;fill:#000;font-family:'trebuchet ms', verdana, arial;font-family:var(--mermaid-font-family)}#mermaid-1683705681296 .slice{font-family:'trebuchet ms', verdana, arial;font-family:var(--mermaid-font-family)}#mermaid-1683705681296 g.stateGroup text{fill:#9370db;stroke:none;font-size:10px;font-family:'trebuchet ms', verdana, arial;font-family:var(--mermaid-font-family)}#mermaid-1683705681296 g.stateGroup text{fill:#9370db;stroke:none;font-size:10px}#mermaid-1683705681296 g.stateGroup .state-title{font-weight:bolder;fill:#000}#mermaid-1683705681296 g.stateGroup rect{fill:#ECECFF;stroke:#9370db}#mermaid-1683705681296 g.stateGroup line{stroke:#9370db;stroke-width:1}#mermaid-1683705681296 .transition{stroke:#9370db;stroke-width:1;fill:none}#mermaid-1683705681296 .stateGroup .composit{fill:white;border-bottom:1px}#mermaid-1683705681296 .stateGroup .alt-composit{fill:#e0e0e0;border-bottom:1px}#mermaid-1683705681296 .state-note{stroke:#aa3;fill:#fff5ad}#mermaid-1683705681296 .state-note text{fill:black;stroke:none;font-size:10px}#mermaid-1683705681296 .stateLabel .box{stroke:none;stroke-width:0;fill:#ECECFF;opacity:0.5}#mermaid-1683705681296 .stateLabel text{fill:#000;font-size:10px;font-weight:bold;font-family:'trebuchet ms', verdana, arial;font-family:var(--mermaid-font-family)}:root{--mermaid-font-family: '"trebuchet ms", verdana, arial';--mermaid-font-family: "Comic Sans MS", "Comic Sans", cursive}

:root { --mermaid-font-family: "trebuchet ms", verdana, arial;}</style><style>#mermaid-1683705681296 {
    color: rgb(0, 0, 0);
    font: 16px "trebuchet ms", verdana, arial;
  }</style><g></g><defs><marker id="extensionStart" class="extension" refX="0" refY="7" markerWidth="190" markerHeight="240" orient="auto"><path d="M 1,7 L18,13 V 1 Z"></path></marker></defs><defs><marker id="extensionEnd" refX="19" refY="7" markerWidth="20" markerHeight="28" orient="auto"><path d="M 1,1 V 13 L18,7 Z"></path></marker></defs><defs><marker id="compositionStart" class="extension" refX="0" refY="7" markerWidth="190" markerHeight="240" orient="auto"><path d="M 18,7 L9,13 L1,7 L9,1 Z"></path></marker></defs><defs><marker id="compositionEnd" refX="19" refY="7" markerWidth="20" markerHeight="28" orient="auto"><path d="M 18,7 L9,13 L1,7 L9,1 Z"></path></marker></defs><defs><marker id="aggregationStart" class="extension" refX="0" refY="7" markerWidth="190" markerHeight="240" orient="auto"><path d="M 18,7 L9,13 L1,7 L9,1 Z"></path></marker></defs><defs><marker id="aggregationEnd" refX="19" refY="7" markerWidth="20" markerHeight="28" orient="auto"><path d="M 18,7 L9,13 L1,7 L9,1 Z"></path></marker></defs><defs><marker id="dependencyStart" class="extension" refX="0" refY="7" markerWidth="190" markerHeight="240" orient="auto"><path d="M 5,7 L9,13 L1,7 L9,1 Z"></path></marker></defs><defs><marker id="dependencyEnd" refX="19" refY="7" markerWidth="20" markerHeight="28" orient="auto"><path d="M 18,7 L9,13 L14,7 L9,1 Z"></path></marker></defs><g id="classid-TextElement-0" class="classGroup " transform="translate(1064.68359375,320.15625 )"><rect x="0" y="0" width="69.953125" height="30"></rect><text y="15" x="0"><tspan class="title" x="5">TextElement</tspan></text><line x1="0" y1="21" y2="21" x2="69.953125"></line><text x="5" y="31" fill="white" class="classText"></text><line x1="0" y1="26" y2="26" x2="69.953125"></line><text x="5" y="41" fill="white" class="classText"></text></g><g id="classid-TextElementGroup-1" class="classGroup " transform="translate(1050.49609375,240.0625 )"><rect x="0" y="0" width="98.328125" height="30.0625"></rect><text y="15" x="0"><tspan class="title" x="5">TextElementGroup</tspan></text><line x1="0" y1="21.0625" y2="21.0625" x2="98.328125"></line><text x="5" y="31.0625" fill="white" class="classText"></text><line x1="0" y1="26.0625" y2="26.0625" x2="98.328125"></line><text x="5" y="41.0625" fill="white" class="classText"></text></g><g id="classid-TextElementState-2" class="classGroup " transform="translate(893.29296875,240.09375 )"><rect x="0" y="0" width="94.0625" height="30"></rect><text y="15" x="0"><tspan class="title" x="5">TextElementState</tspan></text><line x1="0" y1="21" y2="21" x2="94.0625"></line><text x="5" y="31" fill="white" class="classText"></text><line x1="0" y1="26" y2="26" x2="94.0625"></line><text x="5" y="41" fill="white" class="classText"></text></g><g id="classid-TextElementGroupState-3" class="classGroup " transform="translate(1028.43359375,160 )"><rect x="0" y="0" width="122.453125" height="30.0625"></rect><text y="15" x="0"><tspan class="title" x="5">TextElementGroupState</tspan></text><line x1="0" y1="21.0625" y2="21.0625" x2="122.453125"></line><text x="5" y="31.0625" fill="white" class="classText"></text><line x1="0" y1="26.0625" y2="26.0625" x2="122.453125"></line><text x="5" y="41.0625" fill="white" class="classText"></text></g><g id="classid-TextElementStateCache-4" class="classGroup " transform="translate(987.734375,80 )"><rect x="0" y="0" width="122.3125" height="30"></rect><text y="15" x="0"><tspan class="title" x="5">TextElementStateCache</tspan></text><line x1="0" y1="21" y2="21" x2="122.3125"></line><text x="5" y="31" fill="white" class="classText"></text><line x1="0" y1="26" y2="26" x2="122.3125"></line><text x="5" y="41" fill="white" class="classText"></text></g><g id="classid-TextElementsRenderer-5" class="classGroup " transform="translate(380.04296875,0 )"><rect x="0" y="0" width="117.859375" height="30"></rect><text y="15" x="0"><tspan class="title" x="5">TextElementsRenderer</tspan></text><line x1="0" y1="21" y2="21" x2="117.859375"></line><text x="5" y="31" fill="white" class="classText"></text><line x1="0" y1="26" y2="26" x2="117.859375"></line><text x="5" y="41" fill="white" class="classText"></text></g><g id="classid-TextCanvasRenderer-6" class="classGroup " transform="translate(385.36328125,80 )"><rect x="0" y="0" width="107.21875" height="30"></rect><text y="15" x="0"><tspan class="title" x="5">TextCanvasRenderer</tspan></text><line x1="0" y1="21" y2="21" x2="107.21875"></line><text x="5" y="31" fill="white" class="classText"></text><line x1="0" y1="26" y2="26" x2="107.21875"></line><text x="5" y="41" fill="white" class="classText"></text></g><g id="classid-TextCanvas-7" class="classGroup " transform="translate(560.14453125,160.03125 )"><rect x="0" y="0" width="63.609375" height="30"></rect><text y="15" x="0"><tspan class="title" x="5">TextCanvas</tspan></text><line x1="0" y1="21" y2="21" x2="63.609375"></line><text x="5" y="31" fill="white" class="classText"></text><line x1="0" y1="26" y2="26" x2="63.609375"></line><text x="5" y="41" fill="white" class="classText"></text></g><g id="classid-FontCatalog-8" class="classGroup " transform="translate(306.34765625,320.125 )"><rect x="0" y="0" width="65.734375" height="30.0625"></rect><text y="15" x="0"><tspan class="title" x="5">FontCatalog</tspan></text><line x1="0" y1="21.0625" y2="21.0625" x2="65.734375"></line><text x="5" y="31.0625" fill="white" class="classText"></text><line x1="0" y1="26.0625" y2="26.0625" x2="65.734375"></line><text x="5" y="41.0625" fill="white" class="classText"></text></g><g id="classid-PoiRenderer-9" class="classGroup " transform="translate(177.3671875,160.03125 )"><rect x="0" y="0" width="68.125" height="30"></rect><text y="15" x="0"><tspan class="title" x="5">PoiRenderer</tspan></text><line x1="0" y1="21" y2="21" x2="68.125"></line><text x="5" y="31" fill="white" class="classText"></text><line x1="0" y1="26" y2="26" x2="68.125"></line><text x="5" y="41" fill="white" class="classText"></text></g><g id="classid-PoiManager-10" class="classGroup " transform="translate(0,160 )"><rect x="0" y="0" width="63.5625" height="30.0625"></rect><text y="15" x="0"><tspan class="title" x="5">PoiManager</tspan></text><line x1="0" y1="21.0625" y2="21.0625" x2="63.5625"></line><text x="5" y="31.0625" fill="white" class="classText"></text><line x1="0" y1="26.0625" y2="26.0625" x2="63.5625"></line><text x="5" y="41.0625" fill="white" class="classText"></text></g><g id="classid-ScreenCollisions-11" class="classGroup " transform="translate(66.78125,80 )"><rect x="0" y="0" width="85.71875" height="30"></rect><text y="15" x="0"><tspan class="title" x="5">ScreenCollisions</tspan></text><line x1="0" y1="21" y2="21" x2="85.71875"></line><text x="5" y="31" fill="white" class="classText"></text><line x1="0" y1="26" y2="26" x2="85.71875"></line><text x="5" y="41" fill="white" class="classText"></text></g><g id="classid-TextStyleCache-12" class="classGroup " transform="translate(1303.90625,320.125 )"><rect x="0" y="0" width="82.703125" height="30.0625"></rect><text y="15" x="0"><tspan class="title" x="5">TextStyleCache</tspan></text><line x1="0" y1="21.0625" y2="21.0625" x2="82.703125"></line><text x="5" y="31.0625" fill="white" class="classText"></text><line x1="0" y1="26.0625" y2="26.0625" x2="82.703125"></line><text x="5" y="41.0625" fill="white" class="classText"></text></g><g id="classid-Theme-13" class="classGroup " transform="translate(771.15234375,320.15625 )"><rect x="0" y="0" width="42.140625" height="30"></rect><text y="15" x="0"><tspan class="title" x="5">Theme</tspan></text><line x1="0" y1="21" y2="21" x2="42.140625"></line><text x="5" y="31" fill="white" class="classText"></text><line x1="0" y1="26" y2="26" x2="42.140625"></line><text x="5" y="41" fill="white" class="classText"></text></g><g id="classid-TextStyleDefinition-14" class="classGroup " transform="translate(1013.3984375,400.1875 )"><rect x="0" y="0" width="100.71875" height="30.0625"></rect><text y="15" x="0"><tspan class="title" x="5">TextStyleDefinition</tspan></text><line x1="0" y1="21.0625" y2="21.0625" x2="100.71875"></line><text x="5" y="31.0625" fill="white" class="classText"></text><line x1="0" y1="26.0625" y2="26.0625" x2="100.71875"></line><text x="5" y="41.0625" fill="white" class="classText"></text></g><g id="classid-TextRenderStyle-15" class="classGroup " transform="translate(1173.296875,400.1875 )"><rect x="0" y="0" width="88.046875" height="30.0625"></rect><text y="15" x="0"><tspan class="title" x="5">TextRenderStyle</tspan></text><line x1="0" y1="21.0625" y2="21.0625" x2="88.046875"></line><text x="5" y="31.0625" fill="white" class="classText"></text><line x1="0" y1="26.0625" y2="26.0625" x2="88.046875"></line><text x="5" y="41.0625" fill="white" class="classText"></text></g><g id="classid-TextLayoutStyle-16" class="classGroup " transform="translate(1311.34375,400.1875 )"><rect x="0" y="0" width="86.1875" height="30.0625"></rect><text y="15" x="0"><tspan class="title" x="5">TextLayoutStyle</tspan></text><line x1="0" y1="21.0625" y2="21.0625" x2="86.1875"></line><text x="5" y="31.0625" fill="white" class="classText"></text><line x1="0" y1="26.0625" y2="26.0625" x2="86.1875"></line><text x="5" y="41.0625" fill="white" class="classText"></text></g><g id="classid-PoiRenderBuffer-17" class="classGroup " transform="translate(186.33203125,240.09375 )"><rect x="0" y="0" width="87.375" height="30"></rect><text y="15" x="0"><tspan class="title" x="5">PoiRenderBuffer</tspan></text><line x1="0" y1="21" y2="21" x2="87.375"></line><text x="5" y="31" fill="white" class="classText"></text><line x1="0" y1="26" y2="26" x2="87.375"></line><text x="5" y="41" fill="white" class="classText"></text></g><g id="classid-PoiInfo-18" class="classGroup " transform="translate(10.5,240.09375 )"><rect x="0" y="0" width="42.5625" height="30"></rect><text y="15" x="0"><tspan class="title" x="5">PoiInfo</tspan></text><line x1="0" y1="21" y2="21" x2="42.5625"></line><text x="5" y="31" fill="white" class="classText"></text><line x1="0" y1="26" y2="26" x2="42.5625"></line><text x="5" y="41" fill="white" class="classText"></text></g><g id="classid-PoiRenderBufferBatch-19" class="classGroup " transform="translate(21.91796875,320.15625 )"><rect x="0" y="0" width="113.671875" height="30"></rect><text y="15" x="0"><tspan class="title" x="5">PoiRenderBufferBatch</tspan></text><line x1="0" y1="21" y2="21" x2="113.671875"></line><text x="5" y="31" fill="white" class="classText"></text><line x1="0" y1="26" y2="26" x2="113.671875"></line><text x="5" y="41" fill="white" class="classText"></text></g><g id="classid-BoxBuffer-20" class="classGroup " transform="translate(50.55078125,400.21875 )"><rect x="0" y="0" width="56.40625" height="30"></rect><text y="15" x="0"><tspan class="title" x="5">BoxBuffer</tspan></text><line x1="0" y1="21" y2="21" x2="56.40625"></line><text x="5" y="31" fill="white" class="classText"></text><line x1="0" y1="26" y2="26" x2="56.40625"></line><text x="5" y="41" fill="white" class="classText"></text></g><g id="classid-BoxBufferMesh-21" class="classGroup " transform="translate(73.54296875,480.25 )"><rect x="0" y="0" width="79.84375" height="30"></rect><text y="15" x="0"><tspan class="title" x="5">BoxBufferMesh</tspan></text><line x1="0" y1="21" y2="21" x2="79.84375"></line><text x="5" y="31" fill="white" class="classText"></text><line x1="0" y1="26" y2="26" x2="79.84375"></line><text x="5" y="41" fill="white" class="classText"></text></g><g id="classid-IconMaterial-22" class="classGroup " transform="translate(89.71484375,560.28125 )"><rect x="0" y="0" width="67.5" height="30"></rect><text y="15" x="0"><tspan class="title" x="5">IconMaterial</tspan></text><line x1="0" y1="21" y2="21" x2="67.5"></line><text x="5" y="31" fill="white" class="classText"></text><line x1="0" y1="26" y2="26" x2="67.5"></line><text x="5" y="41" fill="white" class="classText"></text></g><g id="classid-THREE_RawShaderMaterial-23" class="classGroup " transform="translate(381.984375,480.25 )"><rect x="0" y="0" width="135.796875" height="30"></rect><text y="15" x="0"><tspan class="title" x="5">THREE_RawShaderMaterial</tspan></text><line x1="0" y1="21" y2="21" x2="135.796875"></line><text x="5" y="31" fill="white" class="classText"></text><line x1="0" y1="26" y2="26" x2="135.796875"></line><text x="5" y="41" fill="white" class="classText"></text></g><g id="classid-THREE_BufferGeometry-24" class="classGroup " transform="translate(448.3359375,560.25 )"><rect x="0" y="0" width="121.609375" height="30.0625"></rect><text y="15" x="0"><tspan class="title" x="5">THREE_BufferGeometry</tspan></text><line x1="0" y1="21.0625" y2="21.0625" x2="121.609375"></line><text x="5" y="31.0625" fill="white" class="classText"></text><line x1="0" y1="26.0625" y2="26.0625" x2="121.609375"></line><text x="5" y="41.0625" fill="white" class="classText"></text></g><g id="classid-THREE_Mesh-25" class="classGroup " transform="translate(594.31640625,400.21875 )"><rect x="0" y="0" width="69.734375" height="30"></rect><text y="15" x="0"><tspan class="title" x="5">THREE_Mesh</tspan></text><line x1="0" y1="21" y2="21" x2="69.734375"></line><text x="5" y="31" fill="white" class="classText"></text><line x1="0" y1="26" y2="26" x2="69.734375"></line><text x="5" y="41" fill="white" class="classText"></text></g><g id="classid-LineTypesetter-26" class="classGroup " transform="translate(374.21484375,240.0625 )"><rect x="0" y="0" width="81.203125" height="30.0625"></rect><text y="15" x="0"><tspan class="title" x="5">LineTypesetter</tspan></text><line x1="0" y1="21.0625" y2="21.0625" x2="81.203125"></line><text x="5" y="31.0625" fill="white" class="classText"></text><line x1="0" y1="26.0625" y2="26.0625" x2="81.203125"></line><text x="5" y="41.0625" fill="white" class="classText"></text></g><g id="classid-PathTypesetter-27" class="classGroup " transform="translate(505.41796875,240.0625 )"><rect x="0" y="0" width="82.125" height="30.0625"></rect><text y="15" x="0"><tspan class="title" x="5">PathTypesetter</tspan></text><line x1="0" y1="21.0625" y2="21.0625" x2="82.125"></line><text x="5" y="31.0625" fill="white" class="classText"></text><line x1="0" y1="26.0625" y2="26.0625" x2="82.125"></line><text x="5" y="41.0625" fill="white" class="classText"></text></g><g id="classid-TextCanvasLayer-28" class="classGroup " transform="translate(637.54296875,240.0625 )"><rect x="0" y="0" width="89.828125" height="30.0625"></rect><text y="15" x="0"><tspan class="title" x="5">TextCanvasLayer</tspan></text><line x1="0" y1="21.0625" y2="21.0625" x2="89.828125"></line><text x="5" y="31.0625" fill="white" class="classText"></text><line x1="0" y1="26.0625" y2="26.0625" x2="89.828125"></line><text x="5" y="41.0625" fill="white" class="classText"></text></g><g id="classid-TextGeometry-29" class="classGroup " transform="translate(643.76171875,320.125 )"><rect x="0" y="0" width="77.390625" height="30.0625"></rect><text y="15" x="0"><tspan class="title" x="5">TextGeometry</tspan></text><line x1="0" y1="21.0625" y2="21.0625" x2="77.390625"></line><text x="5" y="31.0625" fill="white" class="classText"></text><line x1="0" y1="26.0625" y2="26.0625" x2="77.390625"></line><text x="5" y="41.0625" fill="white" class="classText"></text></g><g id="classid-SdfTextMaterial-30" class="classGroup " transform="translate(619.9453125,560.28125 )"><rect x="0" y="0" width="84" height="30"></rect><text y="15" x="0"><tspan class="title" x="5">SdfTextMaterial</tspan></text><line x1="0" y1="21" y2="21" x2="84"></line><text x="5" y="31" fill="white" class="classText"></text><line x1="0" y1="26" y2="26" x2="84"></line><text x="5" y="41" fill="white" class="classText"></text></g><g id="classid-GlyphData-31" class="classGroup " transform="translate(776.11328125,400.1875 )"><rect x="0" y="0" width="57.8125" height="30.0625"></rect><text y="15" x="0"><tspan class="title" x="5">GlyphData</tspan></text><line x1="0" y1="21.0625" y2="21.0625" x2="57.8125"></line><text x="5" y="31.0625" fill="white" class="classText"></text><line x1="0" y1="26.0625" y2="26.0625" x2="57.8125"></line><text x="5" y="41.0625" fill="white" class="classText"></text></g><g id="classid-DuplicateCache-32" class="classGroup " transform="translate(889.07421875,160 )"><rect x="0" y="0" width="82.5" height="30.0625"></rect><text y="15" x="0"><tspan class="title" x="5">DuplicateCache</tspan></text><line x1="0" y1="21.0625" y2="21.0625" x2="82.5"></line><text x="5" y="31.0625" fill="white" class="classText"></text><line x1="0" y1="26.0625" y2="26.0625" x2="82.5"></line><text x="5" y="41.0625" fill="white" class="classText"></text></g><path d="M380.04296875,20.78889304592243L321.9993489583333,26.490744204935357C263.9557291666667,32.192595363948286,147.86848958333334,43.59629768197414,89.82486979166667,55.964815507653746C31.78125,68.33333333333333,31.78125,81.66666666666667,31.78125,95C31.78125,108.33333333333333,31.78125,121.66666666666667,31.78125,132.5C31.78125,143.33333333333334,31.78125,151.66666666666666,31.78125,155.83333333333334L31.78125,160" id="edge0" class="relation" marker-end="url(#dependencyEnd)"></path><path d="M31.78125,190.0625L31.78125,194.22916666666666C31.78125,198.39583333333334,31.78125,206.72916666666666,31.78125,215.06770833333334C31.78125,223.40625,31.78125,231.75,31.78125,235.921875L31.78125,240.09375" id="edge1" class="relation" marker-end="url(#dependencyEnd)"></path><g class="classLabel"><rect class="box" x="14.796875" y="203.578125" width="33.96875" height="16"></rect><text class="label" x="31.78125" y="215.078125" fill="red" text-anchor="middle">create</text></g><path d="M380.04296875,22.157480221565905L334.9759114583333,27.631233517971584C289.9088541666667,33.10498681437727,199.77473958333334,44.05249340718863,154.70768229166666,53.69291337026098C109.640625,63.333333333333336,109.640625,71.66666666666667,109.640625,75.83333333333333L109.640625,80" id="edge2" class="relation" marker-end="url(#dependencyEnd)"></path><path d="M438.97265625,30L438.97265625,34.166666666666664C438.97265625,38.333333333333336,438.97265625,46.666666666666664,438.97265625,55C438.97265625,63.333333333333336,438.97265625,71.66666666666667,438.97265625,75.83333333333333L438.97265625,80" id="edge3" class="relation" marker-end="url(#dependencyEnd)"></path><g class="cardinality"><text class="type2" x="448.97265625" y="67.5" fill="black" font-size="6"># font catalogs</text></g><path d="M385.36328125,104.42404422241678L356.3743489583333,109.52003685201397C327.3854166666667,114.61602948161119,269.4075520833333,124.8080147408056,240.41861979166666,134.0758823704028C211.4296875,143.34375,211.4296875,151.6875,211.4296875,155.859375L211.4296875,160.03125" id="edge4" class="relation" marker-end="url(#dependencyEnd)"></path><path d="M492.58203125,109.01767019049078L509.1432291666667,113.34805849207565C525.7044270833334,117.67844679366051,558.8268229166666,126.33922339683026,575.3880208333334,134.84148669841514C591.94921875,143.34375,591.94921875,151.6875,591.94921875,155.859375L591.94921875,160.03125" id="edge5" class="relation" marker-end="url(#dependencyEnd)"></path><path d="M189.88987485362998,190.03125L183.8991144613583,194.203125C177.90835406908664,198.375,165.92683328454333,206.71875,143.12227080893834,216.40024461213787C120.31770833333333,226.08173922427576,86.69010416666667,237.1009784485515,69.87630208333333,242.6105980606894L53.0625,248.12021767282727" id="edge6" class="relation" marker-end="url(#dependencyEnd)"></path><g class="classLabel"><rect class="box" x="106.953125" y="213.265625" width="34.734375" height="16.015625"></rect><text class="label" x="124.31580214360596" y="224.77162649908314" fill="red" text-anchor="middle">render</text></g><path d="M218.3954369145199,190.03125L220.33278597043326,194.203125C222.2701350263466,198.375,226.1448331381733,206.71875,228.08218219408664,215.0625C230.01953125,223.40625,230.01953125,231.75,230.01953125,235.921875L230.01953125,240.09375" id="edge7" class="relation" marker-end="url(#dependencyEnd)"></path><path d="M230.01953125,270.09375L230.01953125,274.265625C230.01953125,278.4375,230.01953125,286.78125,214.2553150614754,295.125C198.49109887295083,303.46875,166.96266649590163,311.8125,151.19845030737704,315.984375L135.43423411885246,320.15625" id="edge8" class="relation" marker-end="url(#dependencyEnd)"></path><g class="cardinality"><text class="type2" x="150.07658937795253" y="326.625518309964" fill="black" font-size="6"># icon textures</text></g><path d="M78.75390625,350.15625L78.75390625,354.328125C78.75390625,358.5,78.75390625,366.84375,78.75390625,375.1875C78.75390625,383.53125,78.75390625,391.875,78.75390625,396.046875L78.75390625,400.21875" id="edge9" class="relation" marker-end="url(#dependencyEnd)"></path><path d="M31.78125,270.09375L31.78125,274.265625C31.78125,278.4375,31.78125,286.78125,36.67652682230679,295.125C41.57180364461359,303.46875,51.36235728922717,311.8125,56.25763411153397,315.984375L61.15291093384075,320.15625" id="edge10" class="relation" marker-end="url(#dependencyEnd)"></path><g class="classLabel"><rect class="box" x="6.6875" y="288.015625" width="60.5" height="16.0625"></rect><text class="label" x="36.941398324110104" y="299.52260499172394" fill="red" text-anchor="middle">has assigned</text></g><path d="M78.75390625,430.21875L78.75390625,434.390625C78.75390625,438.5625,78.75390625,446.90625,82.36962890625,455.2447916666667C85.9853515625,463.5833333333333,93.216796875,471.9166666666667,96.83251953125,476.0833333333333L100.4482421875,480.25" id="edge11" class="relation" marker-end="url(#dependencyEnd)"></path><path d="M109.71484375,510.25L108.67317708333333,514.4166666666666C107.63151041666667,518.5833333333334,105.54817708333333,526.9166666666666,106.59081955015613,535.2552083333334C107.63346201697892,543.59375,111.80208028395786,551.9375,113.88638941744732,556.109375L115.97069855093677,560.28125" id="edge12" class="relation" marker-end="url(#dependencyEnd)"></path><path d="M404.0302734375,510.25L391.29345703125,514.4166666666666C378.556640625,518.5833333333334,353.0830078125,526.9166666666666,311.9471028645833,536.6521869598427C270.8111979166667,546.3877072530184,214.01302083333334,557.525414506037,185.61393229166666,563.0942681325463L157.21484375,568.6631217590555" id="edge13" class="relation" marker-start="url(#extensionStart)"></path><path d="M153.38671875,504.19118676319414L176.49934895833334,509.3676556359951C199.61197916666666,514.544124508796,245.83723958333334,524.8970622543981,294.9954427083333,534.8765799872365C344.1536458333333,544.8560977200749,396.2447916666667,554.4621954401497,422.2903645833333,559.2652443001872L448.3359375,564.0682931602246" id="edge14" class="relation" marker-end="url(#dependencyEnd)"></path><path d="M594.31640625,420.3859026130842L555.1067708333334,426.1965855109035C515.8971354166666,432.00726840872284,437.4778645833333,443.6286342043614,363.9895833333333,455.02230051822175C290.5013020833333,466.4159668320821,221.94401041666666,477.5819336641642,187.66536458333334,483.16491708020527L153.38671875,488.74790049624636" id="edge15" class="relation" marker-start="url(#extensionStart)"></path><path d="M560.14453125,180.06887654559506L523.3229166666666,185.90114712132922C486.5013020833333,191.73341769706337,412.8580729166667,203.39795884853166,376.0364583333333,215.90210442426584C339.21484375,228.40625,339.21484375,241.75,339.21484375,255.09375C339.21484375,268.4375,339.21484375,281.78125,339.21484375,292.6197916666667C339.21484375,303.4583333333333,339.21484375,311.7916666666667,339.21484375,315.9583333333333L339.21484375,320.125" id="edge16" class="relation" marker-end="url(#dependencyEnd)"></path><path d="M560.14453125,182.21897190490893L535.9231770833334,187.69289325409076C511.7018229166667,193.16681460327263,463.2591145833333,204.1146573016363,439.0377604166667,213.7552453174848C414.81640625,223.39583333333334,414.81640625,231.72916666666666,414.81640625,235.89583333333334L414.81640625,240.0625" id="edge17" class="relation" marker-end="url(#dependencyEnd)"></path><path d="M574.9117480240047,190.03125L570.1732014783373,194.203125C565.4346549326698,198.375,555.957561841335,206.71875,551.2190152956674,215.05729166666666C546.48046875,223.39583333333334,546.48046875,231.72916666666666,546.48046875,235.89583333333334L546.48046875,240.0625" id="edge18" class="relation" marker-end="url(#dependencyEnd)"></path><path d="M623.75390625,189.09833836858007L633.5377604166666,193.42569864048338C643.3216145833334,197.7530589123867,662.8893229166666,206.40777945619334,672.6731770833334,214.90180639476333C682.45703125,223.39583333333334,682.45703125,231.72916666666666,682.45703125,235.89583333333334L682.45703125,240.0625" id="edge19" class="relation" marker-end="url(#dependencyEnd)"></path><g class="cardinality"><text class="type2" x="692.45703125" y="227.5625" fill="black" font-size="6">*</text></g><path d="M682.45703125,270.125L682.45703125,274.2916666666667C682.45703125,278.4583333333333,682.45703125,286.7916666666667,682.45703125,295.125C682.45703125,303.4583333333333,682.45703125,311.7916666666667,682.45703125,315.9583333333333L682.45703125,320.125" id="edge20" class="relation" marker-end="url(#dependencyEnd)"></path><path d="M682.45703125,350.1875L682.45703125,354.3541666666667C682.45703125,358.5208333333333,682.45703125,366.8541666666667,676.9051156323185,375.1927083333333C671.353200014637,383.53125,660.249368779274,391.875,654.6974531615925,396.046875L649.145537543911,400.21875" id="edge21" class="relation" marker-end="url(#dependencyEnd)"></path><g class="classLabel"><rect class="box" x="652.25" y="368.6875" width="47.09375" height="16.0625"></rect><text class="label" x="675.7944217492865" y="380.19398351395455" fill="red" text-anchor="middle">text &amp; bg</text></g><g class="cardinality"><text class="type2" x="665.1459880850783" y="400.7041183958193" fill="black" font-size="6">2</text></g><path d="M600.5550808694379,430.21875L592.5927757245316,434.390625C584.6304705796252,438.5625,568.7058602898127,446.90625,560.7435551449063,457.7447916666667C552.78125,468.5833333333333,552.78125,481.9166666666667,552.78125,495.25C552.78125,508.5833333333333,552.78125,521.9166666666666,548.238900273224,532.75C543.6965505464481,543.5833333333334,534.6118510928962,551.9166666666666,530.0695013661202,556.0833333333334L525.5271516393443,560.25" id="edge22" class="relation" marker-end="url(#dependencyEnd)"></path><g class="cardinality"><text class="type1" x="587.1623063077342" y="431.5911892661907" fill="black" font-size="6">2</text></g><path d="M648.9537928132319,430.21875L654.4523794276932,434.390625C659.9509660421546,438.5625,670.9481392710773,446.90625,676.4467258855386,457.7447916666667C681.9453125,468.5833333333333,681.9453125,481.9166666666667,681.9453125,495.25C681.9453125,508.5833333333333,681.9453125,521.9166666666666,679.8610033665105,532.7552083333334C677.7766942330211,543.59375,673.6080759660422,551.9375,671.5237668325527,556.109375L669.4394576990633,560.28125" id="edge23" class="relation" marker-end="url(#dependencyEnd)"></path><g class="classLabel"><rect class="box" x="658.40625" y="477.03125" width="47.078125" height="16.0625"></rect><text class="label" x="681.9453125" y="488.53440767048266" fill="red" text-anchor="middle">text &amp; bg</text></g><g class="cardinality"><text class="type2" x="683.9718038397596" y="553.5685072187676" fill="black" font-size="6">2</text></g><path d="M449.8828125,510.25L449.8828125,514.4166666666666C449.8828125,518.5833333333334,449.8828125,526.9166666666666,478.2265625,536.4338113395225C506.5703125,545.9509560123785,563.2578125,556.6519120247568,591.6015625,562.0023900309461L619.9453125,567.3528680371353" id="edge24" class="relation" marker-start="url(#extensionStart)"></path><path d="M623.75390625,179.99794568298182L661.1770833333334,185.84203806915153C698.6002604166666,191.6861304553212,773.4466145833334,203.37431522766062,810.8697916666666,215.89028261383032C848.29296875,228.40625,848.29296875,241.75,848.29296875,255.09375C848.29296875,268.4375,848.29296875,281.78125,848.29296875,295.125C848.29296875,308.46875,848.29296875,321.8125,848.29296875,335.15625C848.29296875,348.5,848.29296875,361.84375,843.7888378626725,372.6822916666667C839.2847069753448,383.5208333333333,830.2764452006895,391.8541666666667,825.772314313362,396.0208333333333L821.2681834260344,400.1875" id="edge25" class="relation" marker-end="url(#dependencyEnd)"></path><g class="classLabel"><rect class="box" x="815.953125" y="201.21875" width="34.734375" height="16.015625"></rect><text class="label" x="833.3142474315738" y="212.72338723529148" fill="red" text-anchor="middle">render</text></g><path d="M339.21484375,350.1875L339.21484375,354.3541666666667C339.21484375,358.5208333333333,339.21484375,366.8541666666667,412.03125,377.27867452926444C484.84765625,387.7031823918622,630.48046875,400.2188647837244,703.296875,406.4767059796555L776.11328125,412.7345471755866" id="edge26" class="relation dashed-line" marker-end="url(#dependencyEnd)"></path><g class="classLabel"><rect class="box" x="528.21875" y="381.390625" width="33.984375" height="16.015625"></rect><text class="label" x="545.2099688798253" y="392.89071891158153" fill="red" text-anchor="middle">create</text></g><path d="M497.90234375,18.864761526588488L589.7337239583334,24.887301272157075C681.5651041666666,30.909841017725658,865.2278645833334,42.954920508862834,957.0592447916666,53.144126921098085C1048.890625,63.333333333333336,1048.890625,71.66666666666667,1048.890625,75.83333333333333L1048.890625,80" id="edge27" class="relation" marker-end="url(#dependencyEnd)"></path><path d="M1004.42822265625,110L992.0775553385416,114.16666666666667C979.7268880208334,118.33333333333333,955.0255533854166,126.66666666666667,942.6748860677084,135C930.32421875,143.33333333333334,930.32421875,151.66666666666666,930.32421875,155.83333333333334L930.32421875,160" id="edge28" class="relation" marker-end="url(#dependencyEnd)"></path><path d="M930.32421875,190.0625L930.32421875,194.22916666666666C930.32421875,198.39583333333334,930.32421875,206.72916666666666,931.3663733167447,215.06770833333334C932.4085278834895,223.40625,934.4928370169788,231.75,935.5349915837236,235.921875L936.5771461504684,240.09375" id="edge29" class="relation" marker-end="url(#dependencyEnd)"></path><g class="classLabel"><rect class="box" x="883.5625" y="203.9375" width="93.71875" height="16.078125"></rect><text class="label" x="930.4212147382151" y="215.45078706532385" fill="red" text-anchor="middle">by text or featureId</text></g><path d="M1064.17919921875,110L1068.426025390625,114.16666666666667C1072.6728515625,118.33333333333333,1081.16650390625,126.66666666666667,1085.413330078125,135C1089.66015625,143.33333333333334,1089.66015625,151.66666666666666,1089.66015625,155.83333333333334L1089.66015625,160" id="edge30" class="relation" marker-start="url(#compositionStart)"></path><path d="M1062.2128708040593,190.0625L1054.6044756700494,194.22916666666666C1046.9960805360395,198.39583333333334,1031.7792902680196,206.72916666666666,1016.2256878374642,215.06770833333334C1000.6720854069086,223.40625,984.7816708138174,231.75,976.8364635172717,235.921875L968.891256220726,240.09375" id="edge31" class="relation" marker-start="url(#compositionStart)"></path><path d="M1093.4150352507806,190.0625L1094.4558887506505,194.22916666666666C1095.4967422505204,198.39583333333334,1097.57844925026,206.72916666666666,1098.6193027501301,215.0625C1099.66015625,223.39583333333334,1099.66015625,231.72916666666666,1099.66015625,235.89583333333334L1099.66015625,240.0625" id="edge32" class="relation" marker-end="url(#dependencyEnd)"></path><path d="M1099.66015625,270.125L1099.66015625,274.2916666666667C1099.66015625,278.4583333333333,1099.66015625,286.7916666666667,1099.66015625,295.1302083333333C1099.66015625,303.46875,1099.66015625,311.8125,1099.66015625,315.984375L1099.66015625,320.15625" id="edge33" class="relation" marker-start="url(#compositionStart)"></path><path d="M1064.68359375,347.42612342963747L1051.494140625,352.0530195246979C1038.3046875,356.67991561975833,1011.92578125,365.9337078098792,973.4661458333334,376.164170455302C935.0065104166666,386.3946331007249,884.4661458333334,397.6017662014497,859.1959635416666,403.2053327518122L833.92578125,408.8088993021746" id="edge34" class="relation" marker-end="url(#dependencyEnd)"></path><path d="M792.22265625,350.15625L792.22265625,354.328125C792.22265625,358.5,792.22265625,366.84375,829.0852864583334,376.45012263893085C865.9479166666666,386.05649527786164,939.6731770833334,396.9254905557234,976.5358072916666,402.35998819465425L1013.3984375,407.7944858335851" id="edge35" class="relation" marker-end="url(#dependencyEnd)"></path><g class="cardinality"><text class="type2" x="1002.4905942460746" y="396.0783023445903" fill="black" font-size="6">*</text></g><path d="M497.90234375,17.600933584473015L639.1282552083334,23.834111320394175C780.3541666666666,30.067289056315342,1062.8059895833333,42.53364452815767,1204.0319010416667,55.433488930745504C1345.2578125,68.33333333333333,1345.2578125,81.66666666666667,1345.2578125,95C1345.2578125,108.33333333333333,1345.2578125,121.66666666666667,1345.2578125,135.00520833333334C1345.2578125,148.34375,1345.2578125,161.6875,1345.2578125,175.03125C1345.2578125,188.375,1345.2578125,201.71875,1345.2578125,215.0625C1345.2578125,228.40625,1345.2578125,241.75,1345.2578125,255.09375C1345.2578125,268.4375,1345.2578125,281.78125,1345.2578125,292.6197916666667C1345.2578125,303.4583333333333,1345.2578125,311.7916666666667,1345.2578125,315.9583333333333L1345.2578125,320.125" id="edge36" class="relation" marker-end="url(#dependencyEnd)"></path><path d="M1318.5175003659251,350.1875L1311.1050784299375,354.3541666666667C1303.6926564939502,358.5208333333333,1288.867812621975,366.8541666666667,1275.5513931580147,375.1875C1262.2349736940541,383.5208333333333,1250.4269786381083,391.8541666666667,1244.5229811101353,396.0208333333333L1238.6189835821624,400.1875" id="edge37" class="relation" marker-end="url(#dependencyEnd)"></path><path d="M1359.9693110850899,350.1875L1364.047342570908,354.3541666666667C1368.1253740567265,358.5208333333333,1376.2814370283631,366.8541666666667,1377.2369080145718,375.1875C1378.1923790007806,383.5208333333333,1371.9472580015615,391.8541666666667,1368.8246975019517,396.0208333333333L1365.702137002342,400.1875" id="edge38" class="relation" marker-end="url(#dependencyEnd)"></path><path d="M1064.68359375,350.0335924853692L1054.8274739583333,354.2259104044743C1044.9713541666667,358.4182283235794,1025.2591145833333,366.8028641617897,1043.361328125,376.28010848366904C1061.4635416666667,385.7573528055484,1117.3802083333333,396.3272056110968,1145.3385416666667,401.61213201387096L1173.296875,406.89705841664517" id="edge39" class="relation" marker-end="url(#dependencyEnd)"></path><path d="M1103.4072288495315,350.15625L1104.4493834162763,354.328125C1105.491537983021,358.5,1107.5758471165107,366.84375,1142.231933974922,376.51289736367556C1176.8880208333333,386.18204472735107,1244.1158854166667,397.1765894547022,1277.7298177083333,402.67386181837765L1311.34375,408.1711341820532" id="edge40" class="relation" marker-end="url(#dependencyEnd)"></path><path d="M1110.9013740485948,350.15625L1114.0278377488291,354.328125C1117.1543014490633,358.5,1123.4072288495315,366.84375,1119.6742240355843,375.1822916666667C1115.9412192216366,383.5208333333333,1102.2222821932735,391.8541666666667,1095.362813679092,396.0208333333333L1088.5033451649101,400.1875" id="edge41" class="relation" marker-end="url(#dependencyEnd)"></path><g class="classLabel"><rect class="box" x="1100.953125" y="368.0625" width="43" height="16.0625"></rect><text class="label" x="1122.4490234150935" y="379.5677791353281" fill="red" text-anchor="middle">by name</text></g></svg>